<svg xmlns="http://www.w3.org/2000/svg" version="1.1" xmlns:xlink="http://www.w3.org/1999/xlink" xmlns:svgjs="http://svgjs.dev/svgjs" width="100%" height="100%" viewBox="0 0 1000 600"><rect width="1000" height="600" x="0" y="0" fill="#faa6ef"/><g><circle r="166.66666666666666" cx="406.35622660319007" cy="428.5784742042955" fill="black" transform="matrix(0.5215079025758129,0,0,0.5215079025758129,0,76.49294943868105)"/><path d="M389.28151040560255 485.26010054966076L389.92528720280785 499.1598268529573Q368.2124515879741 503.578476688321 350.94752839019526 503.578476688321Q333.6533426107252 503.578476688321 323.03102545683754 498.8379384543546Q312.3794457212587 494.09740022038824 306.58545454641086 484.0895972820147Q300.79146337156305 474.0817943436412 298.5675071630356 461.1184706544615Q296.3728135361993 448.15514696528174 296.3728135361993 428.78331788574Q296.3728135361993 409.4114888061983 298.5675071630356 396.24332704518054Q300.79146337156305 383.0751652841627 306.58545454641086 372.9503120190246Q312.3794457212587 362.8254587538865 322.9139751300729 358.2019708466847Q333.4485045388871 353.5784829394829 350.3037515929899 353.5784829394829Q367.1589986470927 353.5784829394829 389.92528720280785 358.2019708466847L389.92528720280785 358.2019708466847L389.28151040560255 371.8968590781432Q368.007613516136 368.0927234582936 351.3572045338713 368.0927234582936L351.3572045338713 368.0927234582936Q328.18123983448004 368.0927234582936 320.69001892154546 381.90466201651674Q313.22806059030205 395.7166005747398 313.22806059030205 428.98815595757804L313.22806059030205 428.98815595757804Q313.22806059030205 445.63856493984275 314.6034019297861 455.7634182049809Q315.94948068757907 465.85900888842787 319.9584543792667 473.9647440168766Q323.9674280709543 482.09974172701646 331.66348705572693 485.55272636657224Q339.35954604049954 489.03497358781914 354.19567495791296 489.03497358781914Q369.0610664570175 489.03497358781914 389.28151040560255 485.26010054966076L389.28151040560255 485.26010054966076ZM469.75361005626684 452.3689587288074L469.75361005626684 452.3689587288074L432.67791905357893 452.3689587288074L432.67791905357893 501.4715708065582L416.4664487966815 501.4715708065582L416.4664487966815 355.68538882124574L469.75361005626684 355.68538882124574Q493.5733515528634 355.68538882124574 504.956495830721 367.2733711709414Q516.3396401085786 378.861353520637 516.3396401085786 402.6518324355425L516.3396401085786 402.6518324355425Q516.3396401085786 452.3689587288074 469.75361005626684 452.3689587288074ZM432.67791905357893 369.9947912682184L432.67791905357893 438.0595562818348L469.5487719844287 438.0595562818348Q499.68923112631387 438.0595562818348 499.68923112631387 402.6518324355425L499.68923112631387 402.6518324355425Q499.68923112631387 385.79658538143974 492.519898611982 377.8956883248291Q485.3505660976501 369.9947912682184 469.5487719844287 369.9947912682184L469.5487719844287 369.9947912682184L432.67791905357893 369.9947912682184Z " fill="Purple" transform="matrix(0.5215079025758129,0,0,0.5215079025758129,0,76.49294943868105)"/><path d="M747.2089517609253 485.66546714380814L747.8384824505711 499.2576070338893Q726.606129190697 503.5784767673677 709.7232606956488 503.5784767673677Q692.8117771692531 503.5784767673677 682.4245207900964 498.94284168906637Q672.0086493795922 494.307206610765 666.3428731727794 484.5208658899066Q660.6770969659666 474.7345251690482 658.5023545835537 462.0580662820883Q656.3562272324882 449.38160739512847 656.3562272324882 430.43845664305746Q656.3562272324882 411.4953058909865 658.5023545835537 398.6185417845939Q660.6770969659666 385.74177767820123 666.3428731727794 375.8409768319527Q672.0086493795922 365.9401759857041 682.3100606647063 361.4190010327929Q692.6114719498204 356.8978260798817 709.093730006003 356.8978260798817Q725.5759880621855 356.8978260798817 747.8384824505711 361.4190010327929L747.8384824505711 361.4190010327929L747.2089517609253 374.8108357034412Q726.4058239712642 371.0908816282612 710.1238711345144 371.0908816282612L710.1238711345144 371.0908816282612Q687.4607663072633 371.0908816282612 680.1353182822933 384.5971764242997Q672.8384852886708 398.1034712203382 672.8384852886708 430.63876186249024L672.8384852886708 430.63876186249024Q672.8384852886708 446.9207146992401 674.1833917620052 456.82151554548864Q675.4996832039919 466.69370136038964 679.4199424986049 474.62006504365803Q683.3402017932177 482.5750437582739 690.8659550376204 485.9516174572836Q698.3917082820234 489.35680618764076 712.8995291752257 489.35680618764076Q727.4359650997757 489.35680618764076 747.2089517609253 485.66546714380814L747.2089517609253 485.66546714380814ZM843.8419126215651 429.60862073397885L843.8419126215651 429.60862073397885L843.8419126215651 482.3461235074936Q844.4428282798634 489.9863368772866 855.774380693489 491.41708844466353L855.774380693489 491.41708844466353L855.1734650351907 503.5784767673677Q838.8915121984409 503.5784767673677 830.6503831703495 495.3373477392764L830.6503831703495 495.3373477392764Q812.1078428571442 503.5784767673677 793.5653025439387 503.5784767673677L793.5653025439387 503.5784767673677Q779.3436319642118 503.5784767673677 771.9323388451991 495.5376529587092Q764.5210457261865 487.4968291500507 764.5210457261865 472.4739376925926Q764.5210457261865 457.42243120378697 772.1326440646319 450.32590342959725Q779.7728574344248 443.20076062405997 796.0261952398271 441.56970383725024L796.0261952398271 441.56970383725024L828.3897956938939 438.479280451716L828.3897956938939 429.60862073397885Q828.3897956938939 419.10690422943196 823.8400057096352 414.5857292765208Q819.3188307567241 410.035939292262 811.4783121674983 410.035939292262L811.4783121674983 410.035939292262Q794.9960541113157 410.035939292262 777.2833497071889 412.09622154928485L777.2833497071889 412.09622154928485L770.9021977166877 412.72575223893074L770.2726670270418 400.9649743550921Q792.9357718542929 396.4437994021809 810.4481710389869 396.4437994021809Q827.9605702236809 396.4437994021809 835.9155489382968 404.4846232108394Q843.8419126215651 412.52544701949796 843.8419126215651 429.60862073397885ZM780.3737730927231 471.6441017835139L780.3737730927231 471.6441017835139Q780.3737730927231 490.5872525355849 796.0261952398271 490.5872525355849L796.0261952398271 490.5872525355849Q810.0475606001213 490.5872525355849 823.6397004902025 485.865772363241L823.6397004902025 485.865772363241L828.3897956938939 484.20610054508364L828.3897956938939 450.2114433042071L797.8861722774171 453.1015614703085Q788.6149021208145 453.9313973793872 784.4943376067688 458.45257233229836Q780.3737730927231 463.00236231655714 780.3737730927231 471.6441017835139ZM889.7690379343655 501.5181945103449L874.3169210066944 501.5181945103449L874.3169210066944 398.50408165920373L889.5687327149328 398.50408165920373L889.5687327149328 412.52544701949796Q907.5103573698399 400.163753477361 927.2833440309895 396.2434941827481L927.2833440309895 396.2434941827481L927.2833440309895 411.89591632985207Q918.6129895326851 413.55558814800935 909.2558742820398 417.0466219724091Q899.8701440000469 420.5376557968089 894.9197435769227 423.2274687434776L894.9197435769227 423.2274687434776L889.7690379343655 425.9172816901463L889.7690379343655 501.5181945103449ZM1013.6148936065152 488.75589052934237L1013.6148936065152 488.75589052934237L1019.5668201268035 488.12635983969653L1019.9960455970166 500.2877481624007Q996.5031048606869 503.5784767673677 979.8205415850715 503.5784767673677L979.8205415850715 503.5784767673677Q957.5580471966861 503.5784767673677 948.2867770400833 490.70171266097503Q939.0155068834805 477.8249485545824 939.0155068834805 450.64066877442013L939.0155068834805 450.64066877442013Q939.0155068834805 396.4437994021809 982.0811290615271 396.4437994021809L982.0811290615271 396.4437994021809Q1002.8842568511881 396.4437994021809 1013.1856681363022 408.09011716062935Q1023.4870794214163 419.7364349190778 1023.4870794214163 444.66012722278447L1023.4870794214163 444.66012722278447L1022.6572435123377 456.3922900752756L954.6679290305846 456.3922900752756Q954.6679290305846 473.504078821104 960.848775801653 481.7452078491953Q967.0296225727215 489.9863368772866 982.3958944063501 489.9863368772866Q997.733551208631 489.9863368772866 1013.6148936065152 488.75589052934237ZM954.4676238111517 444.03059653313863L1008.0349624937452 444.03059653313863Q1008.0349624937452 425.08744578106763 1001.9685758480668 417.2469271918419Q995.873574171041 409.4350236339637 982.1955891869172 409.4350236339637Q968.488989171446 409.4350236339637 961.592766616689 417.676152662055Q954.6679290305846 425.9172816901463 954.4676238111517 444.03059653313863L954.4676238111517 444.03059653313863ZM1117.6591475861678 488.75589052934237L1117.6591475861678 488.75589052934237L1123.6110741064558 488.12635983969653L1124.040299576669 500.2877481624007Q1100.5473588403393 503.5784767673677 1083.8647955647243 503.5784767673677L1083.8647955647243 503.5784767673677Q1061.6023011763386 503.5784767673677 1052.3310310197357 490.70171266097503Q1043.0597608631333 477.8249485545824 1043.0597608631333 450.64066877442013L1043.0597608631333 450.64066877442013Q1043.0597608631333 396.4437994021809 1086.1253830411797 396.4437994021809L1086.1253830411797 396.4437994021809Q1106.9285108308409 396.4437994021809 1117.2299221159547 408.09011716062935Q1127.5313334010689 419.7364349190778 1127.5313334010689 444.66012722278447L1127.5313334010689 444.66012722278447L1126.7014974919903 456.3922900752756L1058.7121830102374 456.3922900752756Q1058.7121830102374 473.504078821104 1064.8930297813058 481.7452078491953Q1071.0738765523743 489.9863368772866 1086.4401483860024 489.9863368772866Q1101.7778051882838 489.9863368772866 1117.6591475861678 488.75589052934237ZM1058.5118777908042 444.03059653313863L1112.0792164733975 444.03059653313863Q1112.0792164733975 425.08744578106763 1106.0128298277195 417.2469271918419Q1099.9178281506934 409.4350236339637 1086.2398431665697 409.4350236339637Q1072.5332431510988 409.4350236339637 1065.6370205963417 417.676152662055Q1058.7121830102374 425.9172816901463 1058.5118777908042 444.03059653313863L1058.5118777908042 444.03059653313863ZM1167.1059217547158 501.5181945103449L1151.6538048270445 501.5181945103449L1151.6538048270445 398.50408165920373L1166.8770015039354 398.50408165920373L1166.8770015039354 412.52544701949796Q1184.8186261588426 400.163753477361 1204.591612819992 396.2434941827481L1204.591612819992 396.2434941827481L1204.591612819992 411.89591632985207Q1195.9498733530354 413.55558814800935 1186.5641430710425 417.0466219724091Q1177.1784127890496 420.5376557968089 1172.256627397273 423.2274687434776L1172.256627397273 423.2274687434776L1167.1059217547158 425.9172816901463L1167.1059217547158 501.5181945103449ZM1277.731632944302 453.5021719091741L1277.731632944302 453.5021719091741L1241.47638822697 453.5021719091741L1241.47638822697 501.5181945103449L1225.5950458290858 501.5181945103449L1225.5950458290858 358.95810833690456L1277.731632944302 358.95810833690456Q1301.024268461199 358.95810833690456 1312.126900624044 370.28966075053006Q1323.258147818237 381.62121316415556 1323.258147818237 404.88523364970496L1323.258147818237 404.88523364970496Q1323.258147818237 453.5021719091741 1277.731632944302 453.5021719091741ZM1241.47638822697 372.95085866585123L1241.47638822697 439.5094215802274L1277.5313277248692 439.5094215802274Q1306.9761949814874 439.5094215802274 1306.9761949814874 404.88523364970496L1306.9761949814874 404.88523364970496Q1306.9761949814874 388.4029755935224 1299.9941273326876 380.67691712968684Q1292.9834446525406 372.95085866585123 1277.5313277248692 372.95085866585123L1277.5313277248692 372.95085866585123L1241.47638822697 372.95085866585123ZM1409.3893921743302 482.14581828806087L1409.3893921743302 398.50408165920373L1424.841509102001 398.50408165920373L1424.841509102001 501.5181945103449L1409.3893921743302 501.5181945103449L1409.3893921743302 494.307206610765Q1393.9372752466588 503.5784767673677 1378.8857687578534 503.5784767673677L1378.8857687578534 503.5784767673677Q1357.8823357487595 503.5784767673677 1350.9861131940024 492.6475347926077Q1344.061275607898 481.7452078491953 1344.061275607898 452.2717255612299L1344.061275607898 452.2717255612299L1344.061275607898 398.50408165920373L1359.513392535569 398.50408165920373L1359.513392535569 452.07142034179714Q1359.513392535569 474.5342199496154 1363.433651830182 482.14581828806087Q1367.353911124795 489.7860316578538 1381.1463562343088 489.7860316578538L1381.1463562343088 489.7860316578538Q1387.956733695023 489.7860316578538 1394.9674163751702 487.81159449487365Q1401.9780990553172 485.865772363241 1405.6694380991498 484.0057953256509L1405.6694380991498 484.0057953256509L1409.3893921743302 482.14581828806087ZM1471.1978598850146 501.5181945103449L1455.7457429573437 501.5181945103449L1455.7457429573437 353.57848244356717L1471.1978598850146 353.57848244356717L1471.1978598850146 501.5181945103449ZM1534.4370791630763 410.2362445116948L1534.4370791630763 410.2362445116948Q1511.9742795552584 410.2362445116948 1511.9742795552584 425.9172816901463L1511.9742795552584 425.9172816901463Q1511.9742795552584 433.1282695897262 1517.124985197815 436.10423284987024Q1522.2756908403721 439.08019611001436 1540.6179259341448 442.2850796209387Q1558.9601610279174 445.48996313186314 1566.571759366363 451.2415844327185Q1574.211972736156 457.0218207649214 1574.211972736156 472.87454813145814Q1574.211972736156 488.75589052934237 1563.9964065450845 496.1671836483551Q1553.8094553853607 503.5784767673677 1534.2367739436436 503.5784767673677L1534.2367739436436 503.5784767673677Q1521.4744699626413 503.5784767673677 1504.16237599738 500.68835860126626L1504.16237599738 500.68835860126626L1497.9815292263115 499.65821747275487L1498.8113651353901 486.2663828021065Q1522.2756908403721 489.7860316578538 1534.2367739436436 489.7860316578538Q1546.197857046915 489.7860316578538 1552.4645489120262 485.9516174572836Q1558.7598558084846 482.14581828806087 1558.7598558084846 473.1893134762811Q1558.7598558084846 464.2328086645013 1553.4088449464948 461.0279251535769Q1548.0292190531577 457.851656674 1529.915904210165 454.96153850789864Q1511.7739743358256 452.07142034179714 1504.16237599738 446.5201042603745Q1496.522162627587 440.94017314760436 1496.522162627587 425.9172816901463Q1496.522162627587 410.8657752013407 1507.138339257524 403.6547873017608Q1517.754515887461 396.4437994021809 1533.6072432539977 396.4437994021809L1533.6072432539977 396.4437994021809Q1546.197857046915 396.4437994021809 1565.1410077989858 399.33391756828235L1565.1410077989858 399.33391756828235L1570.9212441311893 400.3640586967938L1570.4920186609756 413.55558814800935Q1547.6286086142923 410.2362445116948 1534.4370791630763 410.2362445116948ZM1667.9548154306945 488.75589052934237L1667.9548154306945 488.75589052934237L1673.9353569823302 488.12635983969653L1674.3359674211956 500.2877481624007Q1650.843026684866 503.5784767673677 1634.1604634092505 503.5784767673677L1634.1604634092505 503.5784767673677Q1611.8979690208653 503.5784767673677 1602.6266988642624 490.70171266097503Q1593.3554287076595 477.8249485545824 1593.3554287076595 450.64066877442013L1593.3554287076595 450.64066877442013Q1593.3554287076595 396.4437994021809 1636.4210508857063 396.4437994021809L1636.4210508857063 396.4437994021809Q1657.224178675367 396.4437994021809 1667.5255899604813 408.09011716062935Q1677.8270012455955 419.7364349190778 1677.8270012455955 444.66012722278447L1677.8270012455955 444.66012722278447L1677.0257803678642 456.3922900752756L1609.0364658861113 456.3922900752756Q1609.0364658861113 473.504078821104 1615.2173126571797 481.7452078491953Q1621.3981594282482 489.9863368772866 1636.735816230529 489.9863368772866Q1652.0734730328104 489.9863368772866 1667.9548154306945 488.75589052934237ZM1608.8075456353308 444.03059653313863L1662.3748843179242 444.03059653313863Q1662.3748843179242 425.08744578106763 1656.3084976722457 417.2469271918419Q1650.2421110265677 409.4350236339637 1636.5355110110963 409.4350236339637Q1622.828910995625 409.4350236339637 1615.9326884408679 417.676152662055Q1609.0364658861113 425.9172816901463 1608.8075456353308 444.03059653313863L1608.8075456353308 444.03059653313863Z " fill="black" transform="matrix(0.5215079025758129,0,0,0.5215079025758129,0,76.49294943868105)"/></g></svg>